<mxfile host="app.diagrams.net" modified="2024-02-19T23:57:00.068Z" agent="Mozilla/5.0 (Windows NT 10.0; Win64; x64) AppleWebKit/537.36 (KHTML, like Gecko) Chrome/121.0.0.0 Safari/537.36" etag="rbmaOHxerdmZ7suYTk7o" version="23.1.1" type="device">
  <diagram id="prtHgNgQTEPvFCAcTncT" name="Page-1">
    <mxGraphModel dx="3915" dy="746" grid="1" gridSize="10" guides="1" tooltips="1" connect="1" arrows="1" fold="1" page="1" pageScale="1" pageWidth="827" pageHeight="1169" math="0" shadow="0">
      <root>
        <mxCell id="0" />
        <mxCell id="1" parent="0" />
        <mxCell id="Q18ktbXXQxL_wc6B0bAR-1" value="Actor" style="shape=umlActor;verticalLabelPosition=bottom;verticalAlign=top;html=1;outlineConnect=0;" parent="1" vertex="1">
          <mxGeometry x="120" y="240" width="30" height="60" as="geometry" />
        </mxCell>
        <mxCell id="Q18ktbXXQxL_wc6B0bAR-3" value="" style="shape=cylinder3;whiteSpace=wrap;html=1;boundedLbl=1;backgroundOutline=1;size=15;" parent="1" vertex="1">
          <mxGeometry x="270" y="240" width="60" height="80" as="geometry" />
        </mxCell>
        <mxCell id="Q18ktbXXQxL_wc6B0bAR-5" value="" style="endArrow=classic;html=1;rounded=0;entryX=0;entryY=0.5;entryDx=0;entryDy=0;entryPerimeter=0;" parent="1" edge="1">
          <mxGeometry width="50" height="50" relative="1" as="geometry">
            <mxPoint x="160" y="260" as="sourcePoint" />
            <mxPoint x="270" y="260" as="targetPoint" />
            <Array as="points" />
          </mxGeometry>
        </mxCell>
        <mxCell id="Q18ktbXXQxL_wc6B0bAR-6" value="Login&amp;nbsp;" style="text;html=1;strokeColor=none;fillColor=none;align=center;verticalAlign=middle;whiteSpace=wrap;rounded=0;" parent="1" vertex="1">
          <mxGeometry x="270" y="210" width="60" height="30" as="geometry" />
        </mxCell>
        <mxCell id="Q18ktbXXQxL_wc6B0bAR-8" value="" style="whiteSpace=wrap;html=1;aspect=fixed;" parent="1" vertex="1">
          <mxGeometry x="300" y="360" width="200" height="200" as="geometry" />
        </mxCell>
        <mxCell id="Q18ktbXXQxL_wc6B0bAR-9" value="DataMan&lt;br&gt;" style="text;html=1;strokeColor=none;fillColor=none;align=center;verticalAlign=middle;whiteSpace=wrap;rounded=0;" parent="1" vertex="1">
          <mxGeometry x="370" y="445" width="60" height="30" as="geometry" />
        </mxCell>
        <mxCell id="Q18ktbXXQxL_wc6B0bAR-10" value="" style="endArrow=classic;html=1;rounded=0;exitX=1;exitY=0.5;exitDx=0;exitDy=0;exitPerimeter=0;entryX=0.5;entryY=0;entryDx=0;entryDy=0;" parent="1" source="Q18ktbXXQxL_wc6B0bAR-3" target="Q18ktbXXQxL_wc6B0bAR-8" edge="1">
          <mxGeometry width="50" height="50" relative="1" as="geometry">
            <mxPoint x="390" y="420" as="sourcePoint" />
            <mxPoint x="440" y="370" as="targetPoint" />
            <Array as="points">
              <mxPoint x="400" y="280" />
            </Array>
          </mxGeometry>
        </mxCell>
        <mxCell id="Q18ktbXXQxL_wc6B0bAR-11" value="" style="rounded=0;whiteSpace=wrap;html=1;" parent="1" vertex="1">
          <mxGeometry x="490" y="660" width="120" height="60" as="geometry" />
        </mxCell>
        <mxCell id="Q18ktbXXQxL_wc6B0bAR-12" value="" style="rounded=0;whiteSpace=wrap;html=1;" parent="1" vertex="1">
          <mxGeometry x="220" y="660" width="120" height="60" as="geometry" />
        </mxCell>
        <mxCell id="Q18ktbXXQxL_wc6B0bAR-13" value="Number Guesser" style="text;html=1;strokeColor=none;fillColor=none;align=center;verticalAlign=middle;whiteSpace=wrap;rounded=0;" parent="1" vertex="1">
          <mxGeometry x="250" y="675" width="60" height="30" as="geometry" />
        </mxCell>
        <mxCell id="Q18ktbXXQxL_wc6B0bAR-14" value="Answer Checker" style="text;html=1;strokeColor=none;fillColor=none;align=center;verticalAlign=middle;whiteSpace=wrap;rounded=0;" parent="1" vertex="1">
          <mxGeometry x="520" y="675" width="60" height="30" as="geometry" />
        </mxCell>
        <mxCell id="Q18ktbXXQxL_wc6B0bAR-15" value="" style="endArrow=classic;html=1;rounded=0;entryX=1;entryY=0.5;entryDx=0;entryDy=0;" parent="1" target="Q18ktbXXQxL_wc6B0bAR-12" edge="1">
          <mxGeometry width="50" height="50" relative="1" as="geometry">
            <mxPoint x="380" y="560" as="sourcePoint" />
            <mxPoint x="380" y="690" as="targetPoint" />
            <Array as="points">
              <mxPoint x="380" y="690" />
            </Array>
          </mxGeometry>
        </mxCell>
        <mxCell id="Q18ktbXXQxL_wc6B0bAR-16" value="" style="endArrow=classic;html=1;rounded=0;entryX=0;entryY=0.5;entryDx=0;entryDy=0;" parent="1" target="Q18ktbXXQxL_wc6B0bAR-11" edge="1">
          <mxGeometry width="50" height="50" relative="1" as="geometry">
            <mxPoint x="440" y="560" as="sourcePoint" />
            <mxPoint x="490" y="510" as="targetPoint" />
            <Array as="points">
              <mxPoint x="440" y="690" />
            </Array>
          </mxGeometry>
        </mxCell>
        <mxCell id="Q18ktbXXQxL_wc6B0bAR-18" value="" style="ellipse;whiteSpace=wrap;html=1;aspect=fixed;" parent="1" vertex="1">
          <mxGeometry x="690" y="430" width="80" height="80" as="geometry" />
        </mxCell>
        <mxCell id="Q18ktbXXQxL_wc6B0bAR-19" value="Exit" style="text;html=1;strokeColor=none;fillColor=none;align=center;verticalAlign=middle;whiteSpace=wrap;rounded=0;" parent="1" vertex="1">
          <mxGeometry x="700" y="455" width="60" height="30" as="geometry" />
        </mxCell>
        <mxCell id="Q18ktbXXQxL_wc6B0bAR-20" value="" style="endArrow=classic;html=1;rounded=0;entryX=0.105;entryY=1.025;entryDx=0;entryDy=0;entryPerimeter=0;" parent="1" target="Q18ktbXXQxL_wc6B0bAR-8" edge="1">
          <mxGeometry width="50" height="50" relative="1" as="geometry">
            <mxPoint x="320" y="660" as="sourcePoint" />
            <mxPoint x="370" y="610" as="targetPoint" />
          </mxGeometry>
        </mxCell>
        <mxCell id="Q18ktbXXQxL_wc6B0bAR-22" value="" style="endArrow=classic;html=1;rounded=0;exitX=0.067;exitY=-0.033;exitDx=0;exitDy=0;exitPerimeter=0;entryX=0.965;entryY=1.02;entryDx=0;entryDy=0;entryPerimeter=0;" parent="1" source="Q18ktbXXQxL_wc6B0bAR-11" target="Q18ktbXXQxL_wc6B0bAR-8" edge="1">
          <mxGeometry width="50" height="50" relative="1" as="geometry">
            <mxPoint x="390" y="420" as="sourcePoint" />
            <mxPoint x="490" y="570" as="targetPoint" />
          </mxGeometry>
        </mxCell>
        <mxCell id="Q18ktbXXQxL_wc6B0bAR-23" value="" style="endArrow=classic;html=1;rounded=0;exitX=0.5;exitY=1;exitDx=0;exitDy=0;entryX=0.938;entryY=0.888;entryDx=0;entryDy=0;entryPerimeter=0;" parent="1" source="Q18ktbXXQxL_wc6B0bAR-12" target="Q18ktbXXQxL_wc6B0bAR-18" edge="1">
          <mxGeometry width="50" height="50" relative="1" as="geometry">
            <mxPoint x="390" y="420" as="sourcePoint" />
            <mxPoint x="440" y="370" as="targetPoint" />
            <Array as="points">
              <mxPoint x="280" y="760" />
              <mxPoint x="770" y="760" />
            </Array>
          </mxGeometry>
        </mxCell>
        <mxCell id="Q18ktbXXQxL_wc6B0bAR-24" value="" style="endArrow=classic;html=1;rounded=0;exitX=0.5;exitY=1;exitDx=0;exitDy=0;entryX=0.5;entryY=1;entryDx=0;entryDy=0;" parent="1" source="Q18ktbXXQxL_wc6B0bAR-11" target="Q18ktbXXQxL_wc6B0bAR-18" edge="1">
          <mxGeometry width="50" height="50" relative="1" as="geometry">
            <mxPoint x="390" y="420" as="sourcePoint" />
            <mxPoint x="700" y="740" as="targetPoint" />
            <Array as="points">
              <mxPoint x="550" y="740" />
              <mxPoint x="720" y="740" />
            </Array>
          </mxGeometry>
        </mxCell>
        <mxCell id="Q18ktbXXQxL_wc6B0bAR-25" value="" style="endArrow=classic;html=1;rounded=0;exitX=1;exitY=0.5;exitDx=0;exitDy=0;entryX=-0.062;entryY=0.4;entryDx=0;entryDy=0;entryPerimeter=0;" parent="1" source="Q18ktbXXQxL_wc6B0bAR-8" target="Q18ktbXXQxL_wc6B0bAR-18" edge="1">
          <mxGeometry width="50" height="50" relative="1" as="geometry">
            <mxPoint x="390" y="420" as="sourcePoint" />
            <mxPoint x="440" y="370" as="targetPoint" />
          </mxGeometry>
        </mxCell>
        <mxCell id="Q18ktbXXQxL_wc6B0bAR-26" value="" style="endArrow=classic;html=1;rounded=0;exitX=1;exitY=0;exitDx=0;exitDy=15;exitPerimeter=0;entryX=0.638;entryY=-0.037;entryDx=0;entryDy=0;entryPerimeter=0;" parent="1" source="Q18ktbXXQxL_wc6B0bAR-3" target="Q18ktbXXQxL_wc6B0bAR-18" edge="1">
          <mxGeometry width="50" height="50" relative="1" as="geometry">
            <mxPoint x="390" y="420" as="sourcePoint" />
            <mxPoint x="440" y="370" as="targetPoint" />
            <Array as="points">
              <mxPoint x="741" y="255" />
            </Array>
          </mxGeometry>
        </mxCell>
        <mxCell id="Q18ktbXXQxL_wc6B0bAR-27" value="" style="endArrow=classic;html=1;rounded=0;exitX=0;exitY=0.5;exitDx=0;exitDy=0;exitPerimeter=0;" parent="1" source="Q18ktbXXQxL_wc6B0bAR-3" edge="1">
          <mxGeometry width="50" height="50" relative="1" as="geometry">
            <mxPoint x="390" y="420" as="sourcePoint" />
            <mxPoint x="160" y="280" as="targetPoint" />
          </mxGeometry>
        </mxCell>
        <mxCell id="Q18ktbXXQxL_wc6B0bAR-28" value="" style="endArrow=classic;html=1;rounded=0;" parent="1" edge="1">
          <mxGeometry width="50" height="50" relative="1" as="geometry">
            <mxPoint x="221" y="682" as="sourcePoint" />
            <mxPoint x="140" y="330" as="targetPoint" />
            <Array as="points">
              <mxPoint x="140" y="680" />
            </Array>
          </mxGeometry>
        </mxCell>
        <mxCell id="Q18ktbXXQxL_wc6B0bAR-29" value="" style="endArrow=classic;html=1;rounded=0;" parent="1" edge="1">
          <mxGeometry width="50" height="50" relative="1" as="geometry">
            <mxPoint x="120" y="330" as="sourcePoint" />
            <mxPoint x="220" y="698" as="targetPoint" />
            <Array as="points">
              <mxPoint x="120" y="700" />
            </Array>
          </mxGeometry>
        </mxCell>
        <mxCell id="Q18ktbXXQxL_wc6B0bAR-32" value="" style="endArrow=classic;html=1;rounded=0;entryX=0.105;entryY=1.025;entryDx=0;entryDy=0;entryPerimeter=0;" parent="1" edge="1">
          <mxGeometry width="50" height="50" relative="1" as="geometry">
            <mxPoint x="-940" y="410" as="sourcePoint" />
            <mxPoint x="-939" y="315" as="targetPoint" />
          </mxGeometry>
        </mxCell>
        <mxCell id="Q18ktbXXQxL_wc6B0bAR-34" value="" style="endArrow=classic;html=1;rounded=0;exitX=0.75;exitY=0;exitDx=0;exitDy=0;" parent="1" source="Q18ktbXXQxL_wc6B0bAR-11" edge="1">
          <mxGeometry width="50" height="50" relative="1" as="geometry">
            <mxPoint x="390" y="420" as="sourcePoint" />
            <mxPoint x="140" y="230" as="targetPoint" />
            <Array as="points">
              <mxPoint x="580" y="190" />
              <mxPoint x="140" y="190" />
            </Array>
          </mxGeometry>
        </mxCell>
        <mxCell id="Q18ktbXXQxL_wc6B0bAR-35" value="" style="endArrow=classic;html=1;rounded=0;entryX=1;entryY=0;entryDx=0;entryDy=0;" parent="1" target="Q18ktbXXQxL_wc6B0bAR-11" edge="1">
          <mxGeometry width="50" height="50" relative="1" as="geometry">
            <mxPoint x="120" y="230" as="sourcePoint" />
            <mxPoint x="440" y="370" as="targetPoint" />
            <Array as="points">
              <mxPoint x="120" y="170" />
              <mxPoint x="610" y="170" />
            </Array>
          </mxGeometry>
        </mxCell>
        <mxCell id="zdp28TmvLsUuS18DL-dR-1" value="" style="whiteSpace=wrap;html=1;aspect=fixed;" parent="1" vertex="1">
          <mxGeometry x="-1740" y="275" width="170" height="170" as="geometry" />
        </mxCell>
        <mxCell id="zdp28TmvLsUuS18DL-dR-2" value="" style="shape=cylinder3;whiteSpace=wrap;html=1;boundedLbl=1;backgroundOutline=1;size=15;" parent="1" vertex="1">
          <mxGeometry x="-2010" y="160" width="60" height="80" as="geometry" />
        </mxCell>
        <mxCell id="zdp28TmvLsUuS18DL-dR-3" value="" style="rounded=0;whiteSpace=wrap;html=1;" parent="1" vertex="1">
          <mxGeometry x="-1630" y="510" width="120" height="60" as="geometry" />
        </mxCell>
        <mxCell id="zdp28TmvLsUuS18DL-dR-4" value="" style="rounded=0;whiteSpace=wrap;html=1;" parent="1" vertex="1">
          <mxGeometry x="-1800" y="555" width="120" height="60" as="geometry" />
        </mxCell>
        <mxCell id="zdp28TmvLsUuS18DL-dR-5" value="Actor" style="shape=umlActor;verticalLabelPosition=bottom;verticalAlign=top;outlineConnect=0;html=1;" parent="1" vertex="1">
          <mxGeometry x="-2260" y="170" width="30" height="60" as="geometry" />
        </mxCell>
        <mxCell id="zdp28TmvLsUuS18DL-dR-6" value="" style="endArrow=classic;startArrow=classic;html=1;rounded=0;entryX=0;entryY=0.5;entryDx=0;entryDy=0;entryPerimeter=0;" parent="1" target="zdp28TmvLsUuS18DL-dR-2" edge="1">
          <mxGeometry width="50" height="50" relative="1" as="geometry">
            <mxPoint x="-2220" y="200" as="sourcePoint" />
            <mxPoint x="-2020" y="200" as="targetPoint" />
          </mxGeometry>
        </mxCell>
        <mxCell id="zdp28TmvLsUuS18DL-dR-7" value="Login" style="text;html=1;strokeColor=none;fillColor=none;align=center;verticalAlign=middle;whiteSpace=wrap;rounded=0;" parent="1" vertex="1">
          <mxGeometry x="-2010" y="190" width="60" height="30" as="geometry" />
        </mxCell>
        <mxCell id="zdp28TmvLsUuS18DL-dR-8" value="Auto Bookr" style="text;html=1;strokeColor=none;fillColor=none;align=center;verticalAlign=middle;whiteSpace=wrap;rounded=0;" parent="1" vertex="1">
          <mxGeometry x="-1685" y="330" width="60" height="30" as="geometry" />
        </mxCell>
        <mxCell id="zdp28TmvLsUuS18DL-dR-9" value="Mechanic Search" style="text;html=1;strokeColor=none;fillColor=none;align=center;verticalAlign=middle;whiteSpace=wrap;rounded=0;" parent="1" vertex="1">
          <mxGeometry x="-1600" y="525" width="60" height="30" as="geometry" />
        </mxCell>
        <mxCell id="zdp28TmvLsUuS18DL-dR-10" value="Appointment" style="text;html=1;strokeColor=none;fillColor=none;align=center;verticalAlign=middle;whiteSpace=wrap;rounded=0;" parent="1" vertex="1">
          <mxGeometry x="-1770" y="570" width="60" height="30" as="geometry" />
        </mxCell>
        <mxCell id="zdp28TmvLsUuS18DL-dR-11" value="User Credentials" style="text;html=1;strokeColor=none;fillColor=none;align=center;verticalAlign=middle;whiteSpace=wrap;rounded=0;fontColor=#00CC00;" parent="1" vertex="1">
          <mxGeometry x="-2160" y="170" width="60" height="30" as="geometry" />
        </mxCell>
        <mxCell id="zdp28TmvLsUuS18DL-dR-12" value="" style="endArrow=classic;startArrow=classic;html=1;rounded=0;" parent="1" edge="1">
          <mxGeometry width="50" height="50" relative="1" as="geometry">
            <mxPoint x="-1950" y="200" as="sourcePoint" />
            <mxPoint x="-1650" y="270" as="targetPoint" />
            <Array as="points">
              <mxPoint x="-1650" y="200" />
            </Array>
          </mxGeometry>
        </mxCell>
        <mxCell id="zdp28TmvLsUuS18DL-dR-13" value="" style="endArrow=classic;startArrow=classic;html=1;rounded=0;entryX=0.929;entryY=1.024;entryDx=0;entryDy=0;entryPerimeter=0;exitX=0.408;exitY=-0.067;exitDx=0;exitDy=0;exitPerimeter=0;" parent="1" source="zdp28TmvLsUuS18DL-dR-3" target="zdp28TmvLsUuS18DL-dR-1" edge="1">
          <mxGeometry width="50" height="50" relative="1" as="geometry">
            <mxPoint x="-1580" y="470" as="sourcePoint" />
            <mxPoint x="-1470" y="395" as="targetPoint" />
          </mxGeometry>
        </mxCell>
        <mxCell id="zdp28TmvLsUuS18DL-dR-14" value="" style="endArrow=classic;startArrow=classic;html=1;rounded=0;exitX=0.667;exitY=0;exitDx=0;exitDy=0;exitPerimeter=0;" parent="1" source="zdp28TmvLsUuS18DL-dR-4" edge="1">
          <mxGeometry width="50" height="50" relative="1" as="geometry">
            <mxPoint x="-1780" y="360" as="sourcePoint" />
            <mxPoint x="-1720" y="450" as="targetPoint" />
          </mxGeometry>
        </mxCell>
        <mxCell id="zdp28TmvLsUuS18DL-dR-15" value="" style="ellipse;whiteSpace=wrap;html=1;" parent="1" vertex="1">
          <mxGeometry x="-1290" y="320" width="120" height="80" as="geometry" />
        </mxCell>
        <mxCell id="zdp28TmvLsUuS18DL-dR-16" value="Google" style="text;html=1;strokeColor=none;fillColor=none;align=center;verticalAlign=middle;whiteSpace=wrap;rounded=0;" parent="1" vertex="1">
          <mxGeometry x="-1260" y="345" width="60" height="30" as="geometry" />
        </mxCell>
        <mxCell id="zdp28TmvLsUuS18DL-dR-18" value="" style="endArrow=classic;html=1;rounded=0;entryX=0.417;entryY=1.038;entryDx=0;entryDy=0;entryPerimeter=0;" parent="1" target="zdp28TmvLsUuS18DL-dR-15" edge="1">
          <mxGeometry width="50" height="50" relative="1" as="geometry">
            <mxPoint x="-1510" y="540" as="sourcePoint" />
            <mxPoint x="-1460" y="490" as="targetPoint" />
            <Array as="points">
              <mxPoint x="-1240" y="540" />
            </Array>
          </mxGeometry>
        </mxCell>
        <mxCell id="zdp28TmvLsUuS18DL-dR-19" value="" style="endArrow=classic;html=1;rounded=0;exitX=1;exitY=0.75;exitDx=0;exitDy=0;" parent="1" source="zdp28TmvLsUuS18DL-dR-4" edge="1">
          <mxGeometry width="50" height="50" relative="1" as="geometry">
            <mxPoint x="-1540" y="680" as="sourcePoint" />
            <mxPoint x="-1200" y="400" as="targetPoint" />
            <Array as="points">
              <mxPoint x="-1200" y="600" />
            </Array>
          </mxGeometry>
        </mxCell>
        <mxCell id="zdp28TmvLsUuS18DL-dR-21" value="" style="endArrow=classic;startArrow=classic;html=1;rounded=0;entryX=0;entryY=0.25;entryDx=0;entryDy=0;" parent="1" target="zdp28TmvLsUuS18DL-dR-3" edge="1">
          <mxGeometry width="50" height="50" relative="1" as="geometry">
            <mxPoint x="-2250" y="260" as="sourcePoint" />
            <mxPoint x="-2180" y="480" as="targetPoint" />
            <Array as="points">
              <mxPoint x="-2250" y="520" />
            </Array>
          </mxGeometry>
        </mxCell>
        <mxCell id="zdp28TmvLsUuS18DL-dR-22" value="" style="endArrow=classic;startArrow=classic;html=1;rounded=0;entryX=0;entryY=0.5;entryDx=0;entryDy=0;" parent="1" target="zdp28TmvLsUuS18DL-dR-4" edge="1">
          <mxGeometry width="50" height="50" relative="1" as="geometry">
            <mxPoint x="-2280" y="250" as="sourcePoint" />
            <mxPoint x="-2240" y="590" as="targetPoint" />
            <Array as="points">
              <mxPoint x="-2280" y="585" />
            </Array>
          </mxGeometry>
        </mxCell>
        <mxCell id="zdp28TmvLsUuS18DL-dR-23" value="Search" style="text;html=1;strokeColor=none;fillColor=none;align=center;verticalAlign=middle;rounded=0;fontColor=#FF3333;" parent="1" vertex="1">
          <mxGeometry x="-1420" y="510" width="60" height="30" as="geometry" />
        </mxCell>
        <mxCell id="zdp28TmvLsUuS18DL-dR-27" value="Calendar" style="text;html=1;strokeColor=none;fillColor=none;align=center;verticalAlign=middle;rounded=0;fontColor=#FF3333;" parent="1" vertex="1">
          <mxGeometry x="-1420" y="570" width="60" height="30" as="geometry" />
        </mxCell>
        <mxCell id="zdp28TmvLsUuS18DL-dR-28" value="Mechanics Found" style="text;html=1;strokeColor=none;fillColor=none;align=center;verticalAlign=middle;rounded=0;fontColor=#00CC00;" parent="1" vertex="1">
          <mxGeometry x="-2190" y="495" width="60" height="30" as="geometry" />
        </mxCell>
        <mxCell id="zdp28TmvLsUuS18DL-dR-29" value="Apt Made" style="text;html=1;strokeColor=none;fillColor=none;align=center;verticalAlign=middle;rounded=0;fontColor=#00CC00;" parent="1" vertex="1">
          <mxGeometry x="-2220" y="555" width="60" height="30" as="geometry" />
        </mxCell>
        <mxCell id="zdp28TmvLsUuS18DL-dR-33" value="Verified User / Program Access --&amp;gt;" style="text;html=1;strokeColor=none;fillColor=none;align=center;verticalAlign=middle;rounded=0;fontColor=#00CC00;" parent="1" vertex="1">
          <mxGeometry x="-1860" y="200" width="60" height="30" as="geometry" />
        </mxCell>
        <mxCell id="zdp28TmvLsUuS18DL-dR-34" value="&lt;font color=&quot;#cccc00&quot;&gt;Book Apt&lt;/font&gt;" style="text;html=1;strokeColor=none;fillColor=none;align=center;verticalAlign=middle;whiteSpace=wrap;rounded=0;" parent="1" vertex="1">
          <mxGeometry x="-1714" y="475" width="60" height="30" as="geometry" />
        </mxCell>
        <mxCell id="zdp28TmvLsUuS18DL-dR-35" value="&lt;font color=&quot;#cccc00&quot;&gt;User Search&lt;/font&gt;" style="text;html=1;strokeColor=none;fillColor=none;align=center;verticalAlign=middle;whiteSpace=wrap;rounded=0;" parent="1" vertex="1">
          <mxGeometry x="-1580" y="465" width="60" height="30" as="geometry" />
        </mxCell>
        <mxCell id="WSWoAqR-8dAd20iP4-nB-1" value="" style="shape=cylinder3;whiteSpace=wrap;html=1;boundedLbl=1;backgroundOutline=1;size=15;" vertex="1" parent="1">
          <mxGeometry x="-2010" y="320" width="60" height="80" as="geometry" />
        </mxCell>
        <mxCell id="WSWoAqR-8dAd20iP4-nB-2" value="History" style="text;html=1;strokeColor=none;fillColor=none;align=center;verticalAlign=middle;whiteSpace=wrap;rounded=0;" vertex="1" parent="1">
          <mxGeometry x="-2010" y="360" width="60" height="30" as="geometry" />
        </mxCell>
        <mxCell id="WSWoAqR-8dAd20iP4-nB-3" value="" style="endArrow=classic;html=1;rounded=0;exitX=0;exitY=0.5;exitDx=0;exitDy=0;entryX=1;entryY=0;entryDx=0;entryDy=0;" edge="1" parent="1" source="zdp28TmvLsUuS18DL-dR-1" target="WSWoAqR-8dAd20iP4-nB-2">
          <mxGeometry width="50" height="50" relative="1" as="geometry">
            <mxPoint x="-1860" y="350" as="sourcePoint" />
            <mxPoint x="-1940" y="360" as="targetPoint" />
          </mxGeometry>
        </mxCell>
        <mxCell id="WSWoAqR-8dAd20iP4-nB-4" value="&lt;font color=&quot;#cccc00&quot;&gt;History Report&lt;/font&gt;" style="text;html=1;strokeColor=none;fillColor=none;align=center;verticalAlign=middle;whiteSpace=wrap;rounded=0;" vertex="1" parent="1">
          <mxGeometry x="-1880" y="330" width="60" height="30" as="geometry" />
        </mxCell>
        <mxCell id="WSWoAqR-8dAd20iP4-nB-5" value="" style="endArrow=classic;html=1;rounded=0;exitX=0;exitY=0;exitDx=0;exitDy=0;" edge="1" parent="1" source="WSWoAqR-8dAd20iP4-nB-2">
          <mxGeometry width="50" height="50" relative="1" as="geometry">
            <mxPoint x="-1780" y="410" as="sourcePoint" />
            <mxPoint x="-2220" y="260" as="targetPoint" />
            <Array as="points">
              <mxPoint x="-2220" y="360" />
            </Array>
          </mxGeometry>
        </mxCell>
        <mxCell id="WSWoAqR-8dAd20iP4-nB-6" value="Vehicle Service History" style="text;html=1;strokeColor=none;fillColor=none;align=center;verticalAlign=middle;rounded=0;fontColor=#00CC00;" vertex="1" parent="1">
          <mxGeometry x="-2150" y="330" width="60" height="30" as="geometry" />
        </mxCell>
      </root>
    </mxGraphModel>
  </diagram>
</mxfile>
